<svg width="12" height="12" viewBox="0 0 12 12" fill="none" xmlns="http://www.w3.org/2000/svg">
<g clip-path="url(#clip0_19_4634)">
<path d="M8.83938 2.06694V1.03168C8.83938 0.941944 8.73625 0.89239 8.66661 0.947301L2.62911 5.66293C2.57781 5.70282 2.5363 5.7539 2.50775 5.81227C2.4792 5.87065 2.46436 5.93477 2.46436 5.99976C2.46436 6.06474 2.4792 6.12886 2.50775 6.18724C2.5363 6.24561 2.57781 6.29669 2.62911 6.33659L8.66661 11.0522C8.73759 11.1071 8.83938 11.0576 8.83938 10.9678V9.93257C8.83938 9.86694 8.80857 9.804 8.75768 9.76382L3.93625 6.00043L8.75768 2.23569C8.80857 2.19551 8.83938 2.13257 8.83938 2.06694V2.06694Z" fill="#D9D9D9"/>
</g>
<defs>
<clipPath id="clip0_19_4634">
<rect width="12" height="12" fill="white" transform="translate(0 0.000488281)"/>
</clipPath>
</defs>
</svg>
